<svg width="14" height="15" viewBox="0 0 14 15" fill="none" xmlns="http://www.w3.org/2000/svg">
<path d="M4.11843 14.2632H9.88783C10.8546 14.2632 11.4761 13.6794 11.5264 12.7126L11.947 3.67243H12.6375C12.9577 3.67243 13.2026 3.42131 13.2026 3.10742C13.2026 2.79352 12.9514 2.55496 12.6375 2.55496H9.85016V1.61327C9.85016 0.646478 9.23492 0.0814667 8.18651 0.0814667H5.80091C4.7525 0.0814667 4.13727 0.646478 4.13727 1.61327V2.55496H1.36244C1.04854 2.55496 0.797424 2.7998 0.797424 3.10742C0.797424 3.42759 1.04854 3.67243 1.36244 3.67243H2.053L2.47362 12.7126C2.52385 13.6857 3.13908 14.2632 4.11843 14.2632ZM5.31124 1.66978C5.31124 1.3496 5.53724 1.14243 5.88252 1.14243H8.1049C8.45019 1.14243 8.67619 1.3496 8.67619 1.66978V2.55496H5.31124V1.66978ZM4.24399 13.1395C3.89871 13.1395 3.64759 12.8821 3.62876 12.5117L3.20814 3.67243H10.773L10.3649 12.5117C10.3524 12.8884 10.1076 13.1395 9.74971 13.1395H4.24399ZM5.14801 12.1288C5.41796 12.1288 5.58746 11.9593 5.58119 11.7081L5.39285 5.14146C5.38657 4.89034 5.21079 4.72711 4.9534 4.72711C4.68972 4.72711 4.52022 4.89662 4.5265 5.14773L4.71484 11.7144C4.72111 11.9655 4.89689 12.1288 5.14801 12.1288ZM6.99999 12.1288C7.26366 12.1288 7.44572 11.9655 7.44572 11.7144V5.14773C7.44572 4.89662 7.26366 4.72711 6.99999 4.72711C6.73632 4.72711 6.56054 4.89662 6.56054 5.14773V11.7144C6.56054 11.9655 6.73632 12.1288 6.99999 12.1288ZM8.85197 12.135C9.10309 12.135 9.27887 11.9655 9.28515 11.7144L9.47348 5.14773C9.47976 4.89662 9.31026 4.73339 9.04659 4.73339C8.78919 4.73339 8.61341 4.89662 8.60713 5.14773L8.4188 11.7144C8.41252 11.9593 8.58202 12.135 8.85197 12.135Z" fill="#E60000"/>
</svg>
